<?xml version="1.0" encoding="UTF-8" standalone="no"?>
<svg
   xmlns:dc="http://purl.org/dc/elements/1.1/"
   xmlns:cc="http://creativecommons.org/ns#"
   xmlns:rdf="http://www.w3.org/1999/02/22-rdf-syntax-ns#"
   xmlns:svg="http://www.w3.org/2000/svg"
   xmlns="http://www.w3.org/2000/svg"
   xmlns:sodipodi="http://sodipodi.sourceforge.net/DTD/sodipodi-0.dtd"
   xmlns:inkscape="http://www.inkscape.org/namespaces/inkscape"
   height="16"
   width="16"
   xml:space="preserve"
   viewBox="0 0 16 16"
   y="0px"
   x="0px"
   id="Capa_1"
   version="1.1"
   sodipodi:docname="counter-clockwise-arrow.svg"
   inkscape:version="0.92.3 (2405546, 2018-03-11)"><sodipodi:namedview
   pagecolor="#ffffff"
   bordercolor="#666666"
   borderopacity="1"
   objecttolerance="10"
   gridtolerance="10"
   guidetolerance="10"
   inkscape:pageopacity="0"
   inkscape:pageshadow="2"
   inkscape:window-width="1920"
   inkscape:window-height="1001"
   id="namedview4522"
   showgrid="false"
   inkscape:zoom="11.313708"
   inkscape:cx="-6.3292397"
   inkscape:cy="15.940417"
   inkscape:window-x="-9"
   inkscape:window-y="-9"
   inkscape:window-maximized="1"
   inkscape:current-layer="Capa_1" /><metadata
   id="metadata43"><rdf:RDF><cc:Work
       rdf:about=""><dc:format>image/svg+xml</dc:format><dc:type
         rdf:resource="http://purl.org/dc/dcmitype/StillImage" /><dc:title></dc:title><cc:license
         rdf:resource="http://creativecommons.org/publicdomain/zero/1.0/" /></cc:Work><cc:License
       rdf:about="http://creativecommons.org/publicdomain/zero/1.0/"><cc:permits
         rdf:resource="http://creativecommons.org/ns#Reproduction" /><cc:permits
         rdf:resource="http://creativecommons.org/ns#Distribution" /><cc:permits
         rdf:resource="http://creativecommons.org/ns#DerivativeWorks" /></cc:License></rdf:RDF></metadata><defs
   id="defs41"><marker
     inkscape:stockid="Arrow2Send"
     orient="auto"
     refY="0.0"
     refX="0.0"
     id="Arrow2Send"
     style="overflow:visible;"
     inkscape:isstock="true"><path
       id="path4572"
       style="fill-rule:evenodd;stroke-width:0.625;stroke-linejoin:round;stroke:#6d6d6d;stroke-opacity:1;fill:#6d6d6d;fill-opacity:1"
       d="M 8.7185878,4.0337352 L -2.2072895,0.016013256 L 8.7185884,-4.0017078 C 6.9730900,-1.6296469 6.9831476,1.6157441 8.7185878,4.0337352 z "
       transform="scale(0.3) rotate(180) translate(-2.3,0)" /></marker><marker
     inkscape:stockid="Arrow1Send"
     orient="auto"
     refY="0.0"
     refX="0.0"
     id="Arrow1Send"
     style="overflow:visible;"
     inkscape:isstock="true"><path
       id="path4554"
       d="M 0.0,0.0 L 5.0,-5.0 L -12.5,0.0 L 5.0,5.0 L 0.0,0.0 z "
       style="fill-rule:evenodd;stroke:#6d6d6d;stroke-width:1pt;stroke-opacity:1;fill:#6d6d6d;fill-opacity:1"
       transform="scale(0.2) rotate(180) translate(6,0)" /></marker><marker
     style="overflow:visible"
     id="DistanceStart"
     refX="0.0"
     refY="0.0"
     orient="auto"
     inkscape:stockid="DistanceStart"
     inkscape:isstock="true"><g
       id="g2300"
       style="stroke:#6d6d6d;stroke-opacity:1;fill:#6d6d6d;fill-opacity:1"><path
         style="fill:#6d6d6d;stroke:#6d6d6d;stroke-width:1.15;stroke-linecap:square;stroke-opacity:1;fill-opacity:1"
         d="M 0,0 L 2,0"
         id="path2306" /><path
         style="fill:#6d6d6d;fill-rule:evenodd;stroke:#6d6d6d;stroke-opacity:1;fill-opacity:1"
         d="M 0,0 L 13,4 L 9,0 13,-4 L 0,0 z "
         id="path2302" /><path
         style="fill:#6d6d6d;stroke:#6d6d6d;stroke-width:1;stroke-linecap:square;stroke-opacity:1;fill-opacity:1"
         d="M 0,-4 L 0,40"
         id="path2304" /></g></marker><marker
     inkscape:stockid="Scissors"
     orient="auto"
     refY="0.0"
     refX="0.0"
     id="Scissors"
     style="overflow:visible"
     inkscape:isstock="true"><path
       id="schere"
       d="M 9.0898857,-3.6061018 C 8.1198849,-4.7769976 6.3697607,-4.7358294 5.0623558,-4.2327734 L -3.1500488,-1.1548705 C -5.5383421,-2.4615840 -7.8983361,-2.0874077 -7.8983361,-2.7236578 C -7.8983361,-3.2209742 -7.4416699,-3.1119800 -7.5100293,-4.4068519 C -7.5756648,-5.6501286 -8.8736064,-6.5699315 -10.100428,-6.4884954 C -11.327699,-6.4958500 -12.599867,-5.5553341 -12.610769,-4.2584343 C -12.702194,-2.9520479 -11.603560,-1.7387447 -10.304005,-1.6532027 C -8.7816644,-1.4265411 -6.0857470,-2.3487593 -4.8210600,-0.082342643 C -5.7633447,1.6559151 -7.4350844,1.6607341 -8.9465707,1.5737277 C -10.201445,1.5014928 -11.708664,1.8611256 -12.307219,3.0945882 C -12.885586,4.2766744 -12.318421,5.9591904 -10.990470,6.3210002 C -9.6502788,6.8128279 -7.8098011,6.1912892 -7.4910978,4.6502760 C -7.2454393,3.4624530 -8.0864637,2.9043186 -7.7636052,2.4731223 C -7.5199917,2.1477623 -5.9728246,2.3362771 -3.2164999,1.0982979 L 5.6763468,4.2330688 C 6.8000164,4.5467672 8.1730685,4.5362646 9.1684433,3.4313614 L -0.051640930,-0.053722219 L 9.0898857,-3.6061018 z M -9.2179159,-5.5066058 C -7.9233569,-4.7838060 -8.0290767,-2.8230356 -9.3743431,-2.4433169 C -10.590861,-2.0196559 -12.145370,-3.2022863 -11.757521,-4.5207817 C -11.530373,-5.6026336 -10.104134,-6.0014137 -9.2179159,-5.5066058 z M -9.1616516,2.5107591 C -7.8108215,3.0096239 -8.0402087,5.2951947 -9.4138723,5.6023681 C -10.324932,5.9187072 -11.627422,5.4635705 -11.719569,4.3902287 C -11.897178,3.0851737 -10.363484,1.9060805 -9.1616516,2.5107591 z "
       style="fill:#6d6d6d;stroke:#6d6d6d;stroke-opacity:1;fill-opacity:1" /></marker></defs>
















<path
   style="opacity:1;fill:none;fill-opacity:1;fill-rule:evenodd;stroke:#000000;stroke-width:1;stroke-linecap:butt;stroke-linejoin:miter;stroke-miterlimit:4;stroke-dasharray:none;stroke-dashoffset:0;stroke-opacity:1"
   d="M 6.9412917,7.2269179 3.7703236,8.1271048 3.1272431,4.9164814"
   id="path4535"
   inkscape:connector-curvature="0"
   sodipodi:nodetypes="ccc" /><path
   style="opacity:1;fill:none;fill-opacity:1;fill-rule:evenodd;stroke:#000000;stroke-width:1;stroke-linecap:butt;stroke-linejoin:miter;stroke-miterlimit:4;stroke-dasharray:none;stroke-dashoffset:0;stroke-opacity:1"
   id="path4889"
   sodipodi:type="arc"
   sodipodi:cx="9.7987309"
   sodipodi:cy="6.4986243"
   sodipodi:rx="4.1584158"
   sodipodi:ry="4.1584158"
   sodipodi:start="3.0077956"
   sodipodi:end="2.4608823"
   sodipodi:open="true"
   d="M 5.6774808,7.0533496 A 4.1584158,4.1584158 0 0 1 8.6874452,2.4914475 4.1584158,4.1584158 0 0 1 13.617038,4.851521 4.1584158,4.1584158 0 0 1 11.950908,10.056792 4.1584158,4.1584158 0 0 1 6.5671184,9.1157034"
   transform="rotate(10.705867)" /></svg>